# xmcd CD database file
#
# Track frame offsets:
#	150
#	17443
#	30739
#	47081
#
# Disc length: 849 seconds
#
# Revision: 4
# Processed by: cddbd v1.5.2PL0 Copyright (c) Steve Scherf et al.
# Submitted via: CDex 1.90
#
DISCID=25034f04
DTITLE=Erasure - Boy [CDS)
DYEAR=2006
DGENRE=Acoustic
TTITLE0=Boy
TTITLE1=Cry So Easy
TTITLE2=I Bet You're Mad At Me (Live At The BBC)
TTITLE3=Jacques Cousteau
EXTD=YEAR: 2006
EXTT0=
EXTT1=
EXTT2=
EXTT3=
PLAYORDER=
